<svg xmlns="http://www.w3.org/2000/svg" viewBox="0 0 600 480" fill="none"><path d="M51 311c77-22 90-97 166-119l112-25c39-6 97 24 126 64l86 28v91H65Z" fill="#AEC8CD" stroke="#203B44" stroke-width="3"/><path d="m172 246 45-42 108-24c27 0 74 13 104 51Z" fill="#284A54"/><path d="m269 193 6 44m64-55 8 49" stroke="#B5D4D6" stroke-width="3"/><path d="m64 291 71-17m237-30 36 71m-243-42 200-26m-186 45 28-3m71-11 24-3" stroke="#203B44" stroke-width="3" stroke-linecap="round"/><path d="M58 323h481M195 343c0-64-91-64-91 0m399 0c0-64-90-64-90 0" stroke="#203B44" stroke-width="10"/><path d="M371 356v-89c0-10 11-20 21-28l2-39h45v37c11 10 22 19 22 30v89c0 11-7 18-18 18h-54c-11 0-18-7-18-18Z" fill="#EF744C" stroke="#203B44" stroke-width="3"/><path d="M391 208v-32h52l23 13v19h-30l-10 24h-10l4-24Z" fill="#E9E6D7" stroke="#203B44" stroke-width="3"/><path d="M384 274h65v58h-65Z" fill="#E9E6D7"/><text x="391" y="295" fill="#203B44" font-family="Arial,sans-serif" font-weight="900" font-size="13">ONE</text><text x="391" y="313" fill="#203B44" font-family="Arial,sans-serif" font-weight="900" font-size="13">PASS.</text><path d="m297 95 7 23 24 4-24 8-3 24-9-23-24-3 22-9Z" fill="#EDE8CE"/><path d="m477 110 4 13 13 3-13 4-3 14-4-13-14-2 13-5Z" fill="#EDE8CE"/></svg>