<svg xmlns="http://www.w3.org/2000/svg" viewBox="0 0 600 480" fill="none"><path d="M52 383c143-41 327-40 493 3" stroke="#829B70" stroke-width="2"/><path d="M110 337c-22-71 13-123 72-117 40-44 96-13 99 31 34 14 61 42 70 88l-38 34-203 1Z" fill="#E7CC9F" stroke="#203F32" stroke-width="3"/><path d="M126 280c-40-24-56-90-20-123 24-21 41-4 59 28 29-13 66-7 85 11 29-13 54-8 55 17 1 15-13 31-34 31l-11 50" fill="#E7CC9F" stroke="#203F32" stroke-width="3"/><path d="M109 172c-9 18-1 73 22 93 21-14 32-40 30-69" fill="#A67952" stroke="#203F32" stroke-width="3"/><path d="M270 209c-1 13 7 21 18 16l10-8c-6-9-16-11-28-8Z" fill="#203F32"/><path d="M214 210c7-7 12-7 17-1m31 39c-15 4-26 0-29-9m-95 94-8 44h52l9-39m67 1 10 38h52l-2-36" stroke="#203F32" stroke-width="3" stroke-linecap="round"/><path d="m183 274 55 2" stroke="#F36E44" stroke-width="14"/><path d="M149 324c-36 30-64 10-62-10" stroke="#A67952" stroke-width="20" stroke-linecap="round"/>
<path d="M397 278c-47-44-42-103-5-104 38-2 30 72 65 93" stroke="#203F32" stroke-width="19"/><path d="M398 278c-47-44-42-103-5-104 38-2 30 72 65 93" stroke="#EDEDDD" stroke-width="12" stroke-dasharray="3 4"/><path d="M402 279c0-17 11-27 28-27h47c17 0 29 10 29 27v82c0 14-12 25-28 25h-48c-16 0-28-11-28-25Z" fill="#F1F2DE" stroke="#203F32" stroke-width="3"/><path d="M417 290h74v55h-74Z" fill="#BDD1A9"/><path d="M426 362h55m-35-99h17m-33-4v-10h47v10" stroke="#203F32" stroke-width="3" stroke-linecap="round"/><path d="m319 126 7-12m-31 24-6-13m46 34 14-1m-202-46 7-10m22 25 8-1" stroke="#F06B43" stroke-width="3" stroke-linecap="round"/></svg>