<svg xmlns="http://www.w3.org/2000/svg" viewBox="0 0 600 480" fill="none"><path d="M115 379c108-24 233-21 369 1" stroke="#B78574" stroke-width="2"/><path d="m366 297 37-100m-17 48c-47-12-59-42-39-76 32 12 43 38 39 76Zm10-23c-2-44 21-70 57-68-1 31-19 54-57 68Z" fill="#728D6D" stroke="#314E3D" stroke-width="2"/>
<g transform="rotate(-13 245 225)"><path d="M170 125h133l-13 217c-1 13-10 20-25 20h-54c-15 0-25-7-26-20Z" fill="#F9EBDD" stroke="#8E5A4C" stroke-width="2"/><path d="M184 323h107v37H184Z" fill="#B77E66"/><path d="M177 135h119M179 140h115" stroke="#B77E66" stroke-width="2"/><path d="M190 187h95v90h-95Z" fill="#D0AC9E"/><text x="199" y="217" fill="#563F35" font-family="Georgia,serif" font-size="27">night</text><text x="199" y="247" fill="#563F35" font-family="Georgia,serif" font-size="27" font-style="italic">shift.</text><path d="M204 293h64m-55 9h46" stroke="#8E5A4C" stroke-width="2"/></g>
<path d="M325 292h121v69c0 14-121 14-121 0Z" fill="#E0B9A6" stroke="#8E5A4C" stroke-width="2"/><path d="M316 273c29-10 105-10 137 0v25c-29 9-106 9-137 0Z" fill="#F9EBDD" stroke="#8E5A4C" stroke-width="2"/><path d="M316 274c27 9 109 9 137 0m-116 50h94m-67 14h40" stroke="#8E5A4C" stroke-width="2"/><path d="M415 98c-35 26-30 59 5 70-52 5-70-40-35-70" fill="#F5D8AD"/><path d="m135 210-18-6m28-9-5-17m172 183 11 9" stroke="#9A6250" stroke-width="2" stroke-linecap="round"/></svg>